<svg width="135" height="37" viewBox="0 0 135 37" fill="none" xmlns="http://www.w3.org/2000/svg">
<rect x="0.5" width="10" height="32" fill="black"/>
<rect x="16.5" y="4" width="10" height="24" fill="black"/>
<rect x="32.5" width="10" height="32" fill="black"/>
<path d="M53.15 25V7.5H60.35C61.45 7.5 62.4167 7.725 63.25 8.175C64.1 8.60833 64.7583 9.225 65.225 10.025C65.7083 10.825 65.95 11.775 65.95 12.875V13.225C65.95 14.3083 65.7 15.2583 65.2 16.075C64.7167 16.875 64.05 17.5 63.2 17.95C62.3667 18.3833 61.4167 18.6 60.35 18.6H56.45V25H53.15ZM56.45 15.6H60.025C60.8083 15.6 61.4417 15.3833 61.925 14.95C62.4083 14.5167 62.65 13.925 62.65 13.175V12.925C62.65 12.175 62.4083 11.5833 61.925 11.15C61.4417 10.7167 60.8083 10.5 60.025 10.5H56.45V15.6ZM73.9449 25.35C72.7116 25.35 71.6033 25.1 70.6199 24.6C69.6366 24.1 68.8616 23.375 68.2949 22.425C67.7283 21.475 67.4449 20.3333 67.4449 19V18.6C67.4449 17.2667 67.7283 16.125 68.2949 15.175C68.8616 14.225 69.6366 13.5 70.6199 13C71.6033 12.5 72.7116 12.25 73.9449 12.25C75.1783 12.25 76.2866 12.5 77.2699 13C78.2533 13.5 79.0283 14.225 79.5949 15.175C80.1616 16.125 80.4449 17.2667 80.4449 18.6V19C80.4449 20.3333 80.1616 21.475 79.5949 22.425C79.0283 23.375 78.2533 24.1 77.2699 24.6C76.2866 25.1 75.1783 25.35 73.9449 25.35ZM73.9449 22.55C74.9116 22.55 75.7116 22.2417 76.3449 21.625C76.9783 20.9917 77.2949 20.0917 77.2949 18.925V18.675C77.2949 17.5083 76.9783 16.6167 76.3449 16C75.7283 15.3667 74.9283 15.05 73.9449 15.05C72.9783 15.05 72.1783 15.3667 71.5449 16C70.9116 16.6167 70.5949 17.5083 70.5949 18.675V18.925C70.5949 20.0917 70.9116 20.9917 71.5449 21.625C72.1783 22.2417 72.9783 22.55 73.9449 22.55ZM88.3525 25.35C87.3692 25.35 86.4442 25.1083 85.5775 24.625C84.7275 24.125 84.0442 23.4 83.5275 22.45C83.0109 21.5 82.7525 20.35 82.7525 19V18.6C82.7525 17.25 83.0109 16.1 83.5275 15.15C84.0442 14.2 84.7275 13.4833 85.5775 13C86.4275 12.5 87.3525 12.25 88.3525 12.25C89.1025 12.25 89.7275 12.3417 90.2275 12.525C90.7442 12.6917 91.1609 12.9083 91.4775 13.175C91.7942 13.4417 92.0359 13.725 92.2025 14.025H92.6525V7.5H95.8025V25H92.7025V23.5H92.2525C91.9692 23.9667 91.5275 24.3917 90.9275 24.775C90.3442 25.1583 89.4859 25.35 88.3525 25.35ZM89.3025 22.6C90.2692 22.6 91.0775 22.2917 91.7275 21.675C92.3775 21.0417 92.7025 20.125 92.7025 18.925V18.675C92.7025 17.475 92.3775 16.5667 91.7275 15.95C91.0942 15.3167 90.2859 15 89.3025 15C88.3359 15 87.5275 15.3167 86.8775 15.95C86.2275 16.5667 85.9025 17.475 85.9025 18.675V18.925C85.9025 20.125 86.2275 21.0417 86.8775 21.675C87.5275 22.2917 88.3359 22.6 89.3025 22.6ZM99.2949 25V7.5H102.445V25H99.2949ZM105.936 25V7.5H109.086V25H105.936ZM113.926 30V27.25H120.676C121.143 27.25 121.376 27 121.376 26.5V23.375H120.926C120.793 23.6583 120.585 23.9417 120.301 24.225C120.018 24.5083 119.635 24.7417 119.151 24.925C118.668 25.1083 118.051 25.2 117.301 25.2C116.335 25.2 115.485 24.9833 114.751 24.55C114.035 24.1 113.476 23.4833 113.076 22.7C112.676 21.9167 112.476 21.0167 112.476 20V12.6H115.626V19.75C115.626 20.6833 115.851 21.3833 116.301 21.85C116.768 22.3167 117.426 22.55 118.276 22.55C119.243 22.55 119.993 22.2333 120.526 21.6C121.06 20.95 121.326 20.05 121.326 18.9V12.6H124.476V27.2C124.476 28.05 124.226 28.725 123.726 29.225C123.226 29.7417 122.56 30 121.726 30H113.926Z" fill="black"/>
</svg>
