<svg width="180" height="90" viewBox="0 0 180 90" fill="none" xmlns="http://www.w3.org/2000/svg">
<path fill-rule="evenodd" clip-rule="evenodd" d="M94.563 32.037C94.563 32.7087 94.3638 33.3653 93.9906 33.9237C93.6175 34.4822 93.0871 34.9175 92.4666 35.1745C91.846 35.4316 91.1632 35.4988 90.5044 35.3678C89.8457 35.2367 89.2406 34.9133 88.7656 34.4384C88.2907 33.9634 87.9673 33.3583 87.8362 32.6996C87.7052 32.0408 87.7724 31.358 88.0295 30.7374C88.2865 30.1169 88.7218 29.5865 89.2802 29.2134C89.8387 28.8402 90.4953 28.641 91.167 28.641C91.6133 28.6396 92.0555 28.7265 92.4682 28.8967C92.8808 29.0669 93.2558 29.317 93.5714 29.6326C93.887 29.9482 94.1371 30.3232 94.3073 30.7358C94.4775 31.1484 94.5643 31.5907 94.563 32.037ZM80.553 38.862V39.702C79.912 39.0086 79.1283 38.4624 78.2559 38.1011C77.3834 37.7399 76.443 37.5722 75.4995 37.6095C74.1474 37.595 72.8064 37.8545 71.5575 38.3726C70.3086 38.8907 69.1776 39.6565 68.2329 40.6238C67.2881 41.5911 66.5492 42.7399 66.0608 44.0007C65.5723 45.2615 65.3445 46.6082 65.391 47.9595C65.3431 49.3108 65.5695 50.6578 66.0567 51.9192C66.5438 53.1805 67.2816 54.33 68.2253 55.2983C69.1691 56.2666 70.2993 57.0336 71.5477 57.5529C72.7962 58.0723 74.1369 58.3332 75.489 58.32C76.438 58.3637 77.3848 58.1937 78.2594 57.8228C79.134 57.4518 79.9142 56.8892 80.5425 56.1765V57.066C80.541 57.162 80.5589 57.2572 80.595 57.3461C80.631 57.435 80.6845 57.5158 80.7524 57.5836C80.8202 57.6514 80.901 57.705 80.9899 57.741C81.0788 57.7771 81.174 57.7949 81.27 57.7935H85.506V38.1H81.306C81.1147 38.1053 80.9327 38.1837 80.7974 38.319C80.6621 38.4543 80.5838 38.6363 80.5785 38.8275L80.553 38.862ZM80.553 51.456C80.068 52.1242 79.4307 52.6671 78.6941 53.0399C77.9574 53.4126 77.1425 53.6045 76.317 53.5995C72.972 53.5995 70.4145 51.507 70.4145 47.9595C70.4145 44.412 72.972 42.3195 76.317 42.3195C77.1406 42.3257 77.9515 42.5225 78.6864 42.8943C79.4213 43.2662 80.0602 43.8031 80.553 44.463V51.468V51.456ZM88.653 38.133H93.708V57.783H88.653V38.1V38.133ZM163.603 37.608C162.66 37.5707 161.719 37.7384 160.847 38.0996C159.975 38.4609 159.191 39.0071 158.55 39.7005V28.6725H153.495V57.78H157.729C157.921 57.7747 158.103 57.6964 158.238 57.5611C158.373 57.4258 158.452 57.2438 158.457 57.0525V56.163C159.089 56.8676 159.869 57.4247 160.74 57.7951C161.612 58.1654 162.554 58.34 163.5 58.3065C164.851 58.3169 166.19 58.0544 167.437 57.5349C168.684 57.0153 169.813 56.2494 170.757 55.2829C171.701 54.3165 172.44 53.1695 172.93 51.9106C173.42 50.6516 173.651 49.3068 173.608 47.9565C173.652 46.606 173.422 45.2605 172.933 44.0011C172.443 42.7416 171.704 41.594 170.76 40.6273C169.816 39.6606 168.686 38.8947 167.438 38.3756C166.191 37.8565 164.851 37.5949 163.5 37.6065L163.603 37.608ZM162.75 53.55C161.923 53.5617 161.106 53.3728 160.368 52.9995C159.63 52.6262 158.994 52.0796 158.514 51.4065V44.4C159.023 43.7578 159.666 43.2336 160.397 42.8636C161.128 42.4935 161.931 42.2864 162.75 42.2565C166.095 42.2565 168.652 44.349 168.652 47.8965C168.652 51.444 166.095 53.5365 162.75 53.5365V53.55ZM150.933 46.131V57.8355H145.878V46.716C145.878 43.4715 144.867 42.168 142.008 42.168C141.238 42.1949 140.481 42.3801 139.786 42.7123C139.09 43.0444 138.471 43.5163 137.965 44.0985V57.7845H132.91V38.1H136.882C137.074 38.1053 137.256 38.1837 137.391 38.319C137.526 38.4543 137.605 38.6363 137.61 38.8275V39.6675C138.308 38.973 139.14 38.429 140.056 38.0691C140.972 37.7092 141.953 37.541 142.936 37.575C144.935 37.5011 146.891 38.1708 148.425 39.4545C150.204 40.92 150.88 42.7995 150.88 46.095L150.933 46.131ZM120.783 37.611C119.839 37.5737 118.899 37.7414 118.027 38.1026C117.154 38.4639 116.37 39.0101 115.729 39.7035V28.6755H110.674V57.78H114.91C115.102 57.7747 115.284 57.6964 115.419 57.5611C115.554 57.4258 115.633 57.2438 115.638 57.0525V56.163C116.272 56.869 117.053 57.4269 117.926 57.7973C118.799 58.1678 119.743 58.3416 120.691 58.3065C122.042 58.3169 123.381 58.0544 124.628 57.5349C125.875 57.0153 127.005 56.2494 127.949 55.2829C128.892 54.3165 129.631 53.1695 130.121 51.9106C130.611 50.6516 130.842 49.3068 130.8 47.9565C130.852 46.6037 130.628 45.2545 130.142 43.9911C129.656 42.7276 128.917 41.5766 127.971 40.6081C127.025 39.6395 125.892 38.8739 124.64 38.3579C123.389 37.8418 122.045 37.5862 120.691 37.6065L120.783 37.611ZM119.94 53.55C119.113 53.5617 118.296 53.3728 117.558 52.9995C116.82 52.6262 116.184 52.0796 115.704 51.4065V44.4C116.213 43.7578 116.856 43.2336 117.587 42.8636C118.318 42.4935 119.121 42.2864 119.94 42.2565C123.285 42.2565 125.842 44.349 125.842 47.8965C125.842 51.444 123.285 53.5365 119.94 53.5365V53.55ZM106.32 37.605C107.097 37.5804 107.873 37.6688 108.624 37.8675V42.5175C108.624 42.5175 104.424 41.133 101.832 44.0835V57.831H96.777V38.1H101.013C101.204 38.1053 101.386 38.1837 101.522 38.319C101.657 38.4543 101.735 38.6363 101.74 38.8275V39.6675C102.939 38.4223 104.563 37.6751 106.288 37.575L106.32 37.605ZM54.21 56.0025L53.421 54.123L52.218 51.453L52.167 51.402C48.5113 43.4355 44.6621 35.5592 40.623 27.78L40.461 27.48L39.216 24.975C38.7011 23.9494 38.0705 22.9861 37.3365 22.104C36.5378 21.0975 35.5198 20.2866 34.3601 19.7332C33.2005 19.1798 31.9298 18.8984 30.645 18.9105C29.3688 18.9148 28.109 19.1973 26.9533 19.7385C25.7976 20.2797 24.7738 21.0665 23.9535 22.044C23.2371 22.9391 22.6077 23.9004 22.074 24.915L20.6595 27.684C16.617 35.529 12.714 43.464 9.10646 51.306L9.05547 51.4065C8.75547 52.266 8.32796 53.1465 7.90346 54.0855C7.64046 54.6585 7.37746 55.285 7.11446 55.965C6.44761 57.7655 6.23232 59.702 6.48746 61.605C6.76873 63.5161 7.54299 65.3209 8.73396 66.8417C9.92494 68.3625 11.4915 69.5469 13.2795 70.278C14.6201 70.8416 16.0612 71.1269 17.5155 71.1165C17.9685 71.1089 18.4208 71.0754 18.87 71.016C20.714 70.7809 22.4915 70.1758 24.096 69.237C26.533 67.7836 28.7205 65.9476 30.5745 63.7995C32.4401 65.9358 34.6255 67.7701 37.053 69.237C38.6573 70.176 40.4349 70.7812 42.279 71.016C42.7282 71.0753 43.1804 71.1089 43.6335 71.1165C45.0881 71.1317 46.5303 70.8462 47.8695 70.278C49.6574 69.5469 51.224 68.3625 52.415 66.8417C53.6059 65.3209 54.3802 63.5161 54.6615 61.605C55.0465 59.7352 54.8813 57.7939 54.186 56.016L54.21 56.0025ZM30.648 58.722C27.828 55.164 25.998 51.828 25.371 48.9975C25.1149 47.956 25.0599 46.8752 25.209 45.813C25.3124 45.0263 25.5997 44.2751 26.0475 43.62C26.5712 42.8934 27.2631 42.3043 28.0639 41.9031C28.8648 41.5019 29.7509 41.3004 30.6465 41.316C31.5441 41.2815 32.436 41.4737 33.2398 41.8748C34.0436 42.2759 34.7333 42.873 35.2455 43.611C35.6933 44.2661 35.9805 45.0173 36.084 45.804C36.2338 46.8661 36.1788 47.9471 35.922 48.9885C35.295 51.7575 33.4665 55.053 30.645 58.713L30.648 58.722ZM51.501 61.1775C51.3044 62.5155 50.7617 63.779 49.9266 64.8427C49.0915 65.9064 47.9931 66.7335 46.74 67.242C45.4902 67.7706 44.1255 67.969 42.777 67.818C41.3739 67.6445 40.0217 67.1834 38.805 66.4635C36.5621 65.1094 34.5519 63.4031 32.8515 61.41C36.2985 57.174 38.391 53.31 39.1785 49.857C39.5185 48.4003 39.6073 46.8962 39.441 45.4095C39.2468 44.1312 38.763 42.9142 38.0265 41.8515C37.1982 40.6695 36.0921 39.7093 34.8054 39.0553C33.5187 38.4014 32.091 38.0739 30.648 38.1015C29.2123 38.0832 27.7933 38.4107 26.5109 39.0564C25.2285 39.702 24.1203 40.6468 23.28 41.811C22.5434 42.8737 22.0596 44.0907 21.8655 45.369C21.6445 46.8537 21.7339 48.3681 22.128 49.8165C22.917 53.2635 25.059 57.1845 28.455 61.4205C26.7664 63.4255 24.7541 65.1337 22.5015 66.474C21.2847 67.2094 19.9286 67.6844 18.519 67.869C17.172 68.0186 15.8088 67.8384 14.547 67.344C13.2939 66.8355 12.1954 66.0084 11.3603 64.9447C10.5252 63.881 9.98252 62.6175 9.78596 61.2795C9.62073 59.9134 9.78374 58.5275 10.2615 57.237C10.4235 56.712 10.6755 56.226 10.9365 55.569C11.301 54.729 11.7255 53.841 12.1395 52.9515L12.1905 52.851C15.7995 45.051 19.6605 37.1235 23.6955 29.3805L23.8455 29.0055L25.0995 26.5995C25.5064 25.7702 26.012 24.993 26.6055 24.285C27.1207 23.6796 27.7613 23.1933 28.483 22.8599C29.2047 22.5264 29.9902 22.3537 30.7852 22.3537C31.5802 22.3537 32.3657 22.5264 33.0874 22.8599C33.8091 23.1933 34.4497 23.6796 34.965 24.285C35.5286 24.9913 36.0069 25.7616 36.39 26.58L37.644 28.986L37.794 29.286C41.766 37.08 45.648 45.0135 49.2465 52.806V52.857C49.6605 53.697 50.0355 54.636 50.4495 55.4745C50.712 56.1015 50.9745 56.6265 51.1245 57.1425C51.5584 58.4434 51.6832 59.8275 51.489 61.185L51.501 61.1775Z" fill="black"/>
</svg>
