<svg width="165" height="34" viewBox="0 0 165 34" fill="none" xmlns="http://www.w3.org/2000/svg">
<path d="M19.6114 6.94593L10.1131 13.0087L19.6114 19.0714L10.1131 25.1342L0.614746 19.0209L10.1131 12.9582L0.614746 6.94593L10.1131 0.883179L19.6114 6.94593ZM10.0625 27.0541L19.5608 20.9913L29.0592 27.0541L19.5608 33.1168L10.0625 27.0541ZM19.6114 19.0209L29.1097 12.9582L19.6114 6.94593L29.0592 0.883179L38.5575 6.94593L29.0592 13.0087L38.5575 19.0714L29.0592 25.1342L19.6114 19.0209Z" fill="black"/>
<path d="M45.9843 6.94596H53.6638C58.5645 6.94596 62.6064 9.77524 62.6064 16.2422V17.6063C62.6064 24.1238 58.8171 27.0541 53.8154 27.0541H45.9843V6.94596ZM50.2788 10.5836V23.3659H53.5628C56.3415 23.3659 58.2109 21.5471 58.2109 17.5053V16.4443C58.2109 12.4024 56.2405 10.5836 53.4112 10.5836H50.2788ZM64.8799 10.7857H68.3154L68.8712 14.5749C69.528 11.9983 71.1953 10.6341 74.2266 10.6341H75.2876V14.9791H73.5193C70.0332 14.9791 69.1743 16.1917 69.1743 19.6272V27.1046H64.9304V10.7857H64.8799ZM76.1465 19.2736V18.8188C76.1465 13.3624 79.6326 10.3815 84.3817 10.3815C89.2319 10.3815 92.617 13.3624 92.617 18.8188V19.2736C92.617 24.629 89.333 27.5088 84.3817 27.5088C79.1274 27.4583 76.1465 24.629 76.1465 19.2736ZM88.272 19.223V18.8188C88.272 15.7875 86.7563 13.9686 84.3312 13.9686C81.9566 13.9686 80.3904 15.6359 80.3904 18.8188V19.223C80.3904 22.1534 81.9061 23.8206 84.3312 23.8206C86.7563 23.7701 88.272 22.1534 88.272 19.223ZM94.84 10.7857H98.3766L98.7808 13.8676C99.6397 11.7962 101.458 10.3815 104.136 10.3815C108.279 10.3815 111.007 13.3624 111.007 18.8694V19.3241C111.007 24.6795 107.976 27.5088 104.136 27.5088C101.56 27.5088 99.7912 26.3468 98.9323 24.4774V32.7127H94.7895L94.84 10.7857ZM106.713 19.223V18.8694C106.713 15.6359 105.046 14.0192 102.823 14.0192C100.448 14.0192 98.8818 15.838 98.8818 18.8694V19.1725C98.8818 22.0523 100.398 23.8711 102.772 23.8711C105.197 23.8206 106.713 22.2544 106.713 19.223ZM117.272 24.0732L116.919 27.0541H113.281V5.32922H117.424V13.6655C118.333 11.5435 120.152 10.3815 122.729 10.3815C126.619 10.432 129.499 13.1098 129.499 18.5157V19.0209C129.499 24.4269 126.77 27.5088 122.628 27.5088C119.899 27.4583 118.131 26.1952 117.272 24.0732ZM125.154 19.0209V18.6168C125.154 15.6359 123.537 13.9686 121.263 13.9686C118.939 13.9686 117.323 15.838 117.323 18.6673V19.0209C117.323 22.0523 118.889 23.8206 121.213 23.8206C123.689 23.8206 125.154 22.2544 125.154 19.0209ZM131.318 19.2736V18.8188C131.318 13.3624 134.804 10.3815 139.553 10.3815C144.403 10.3815 147.788 13.3624 147.788 18.8188V19.2736C147.788 24.629 144.453 27.5088 139.553 27.5088C134.298 27.4583 131.318 24.629 131.318 19.2736ZM143.494 19.223V18.8188C143.494 15.7875 141.978 13.9686 139.553 13.9686C137.178 13.9686 135.612 15.6359 135.612 18.8188V19.223C135.612 22.1534 137.128 23.8206 139.553 23.8206C141.978 23.7701 143.494 22.1534 143.494 19.223ZM153.346 18.6168L147.636 10.7857H152.537L155.821 15.6864L159.156 10.7857H164.006L158.196 18.5662L164.309 27.0541H159.509L155.771 21.6481L152.133 27.0541H147.131L153.346 18.6168Z" fill="black"/>
</svg>
