<svg width="166" height="48" viewBox="0 0 166 48" fill="none" xmlns="http://www.w3.org/2000/svg">
<path d="M0.614746 15.8381H16.2209L32.1859 31.8031H16.2209V47.768L0.614746 31.8031V15.8381ZM0.614746 0.231934H32.1859V15.8381H16.2209L0.614746 0.231934Z" fill="black"/>
<path d="M53.0529 33.9556V10.3669H67.5828V15.1205H58.5241V21.3092H67.5828V25.9731H58.5241V33.9556H53.0529Z" fill="black"/>
<path d="M70.8116 33.9557V17.632H76.2828V21.3093C76.3725 20.1433 76.9106 19.1567 77.7178 18.3495C78.525 17.632 79.6013 17.2732 80.6776 17.2732C81.3952 17.2732 81.7539 17.632 82.1127 17.632V22.3856H80.6776C79.422 22.2062 78.1663 22.834 77.3591 23.8206C76.6415 24.5381 76.2828 25.9732 76.2828 27.767V33.9557H70.8116Z" fill="black"/>
<path d="M92.2477 30.368C93.4137 30.5474 94.5797 29.9196 95.1178 28.933C95.8354 28.1258 96.1941 27.1392 96.1941 26.0629C96.1941 24.8969 95.8354 23.7309 95.1178 22.834C94.4003 22.0268 93.324 21.668 92.2477 21.7577C91.1714 21.7577 90.0952 22.1165 89.2879 22.834C88.5704 23.7309 88.122 24.8969 88.2117 26.0629C88.2117 27.1392 88.5704 28.2155 89.2879 28.933C90.0055 29.8299 91.0818 30.368 92.2477 30.368ZM90.8127 34.6732C88.5704 34.6732 86.5075 33.7763 84.9828 32.1619C83.7271 30.368 83.0993 28.2155 83.189 25.9732C83.189 24.5381 83.458 23.0134 83.9065 21.668C84.5343 20.3227 85.6106 19.2464 86.7766 18.3495C87.9426 17.632 89.3776 17.2732 90.8127 17.2732C91.889 17.3629 93.0549 17.5423 94.0415 17.9907C94.9385 18.4392 95.5663 19.2464 95.8354 20.1433V17.5423H101.307V33.866H95.8354V31.7134C95.3869 32.5206 94.7591 33.2381 94.0415 33.866C93.0549 34.4041 91.9787 34.5835 90.8127 34.6732Z" fill="black"/>
<path d="M105.343 33.9557V17.632H110.455V20.233C110.814 19.1567 111.531 18.798 112.249 18.0804C113.146 17.632 114.132 17.4526 115.209 17.3629C117.72 17.3629 119.603 18.4392 120.321 20.3227C121.038 19.6052 121.756 18.8877 122.474 18.1701C123.55 17.7217 124.626 17.5423 125.792 17.4526C129.738 17.4526 131.622 19.6052 131.622 24V34.1351H126.51V24.8969C126.51 24 126.241 23.1031 125.792 22.3856C125.254 21.9371 124.626 21.6681 123.909 21.6681C123.012 21.5784 122.204 22.0268 121.756 22.7444C121.218 23.6413 120.949 24.6279 121.038 25.6145V33.9557H115.926V24.8969C115.926 24 115.657 23.1031 115.209 22.3856C114.76 21.9371 114.043 21.6681 113.415 21.6681C112.608 21.7578 111.8 22.1165 111.262 22.7444C110.724 23.6413 110.455 24.6279 110.545 25.6145V33.9557H105.343Z" fill="black"/>
<path d="M139.515 24.1794H146.421C146.421 23.2825 146.152 22.3856 145.703 21.6681C144.986 20.9505 144.268 20.9505 143.192 20.9505C142.205 20.9505 141.219 21.2196 140.322 21.6681C139.784 22.3856 139.515 23.2825 139.515 24.1794ZM151.444 24.8969V27.4083H139.425C139.425 28.3949 139.784 29.2918 140.501 29.9196C141.219 30.4577 142.116 30.7268 143.013 30.6371C144.806 30.6371 145.524 30.2784 146.242 29.2021H151.354C150.995 30.9062 149.919 32.3412 148.484 33.1485C146.78 34.0454 144.896 34.5835 143.013 34.5835C140.143 34.5835 137.9 33.866 136.465 32.0722C134.851 30.4577 133.864 28.2155 133.864 25.8835C133.864 23.4619 134.761 21.1299 136.465 19.3361C137.9 17.901 140.053 17.1835 143.013 17.1835C145.255 17.0938 147.497 17.901 149.201 19.3361C150.726 20.8608 151.533 22.834 151.444 24.8969Z" fill="black"/>
<path d="M154.403 33.9557V17.632H159.516V21.3093C159.875 20.233 160.502 19.2464 161.31 18.3495C162.117 17.632 163.103 17.2732 164.18 17.2732C164.538 17.2732 165.256 17.632 165.615 17.632V22.3856H163.821C162.655 22.2959 161.579 22.9237 160.951 23.8206C159.875 24.5381 159.516 25.9732 159.516 27.767V33.9557H154.403Z" fill="black"/>
</svg>
