<svg width="129" height="44" viewBox="0 0 129 44" fill="none" xmlns="http://www.w3.org/2000/svg">
<path d="M55.0481 23.1113C55.0481 29.2017 50.2836 33.6896 44.4364 33.6896C38.5892 33.6896 33.8247 29.2017 33.8247 23.1113C33.8247 16.978 38.5892 12.533 44.4364 12.533C50.2836 12.533 55.0481 16.978 55.0481 23.1113ZM50.4028 23.1113C50.4028 19.3054 47.6414 16.7013 44.4364 16.7013C41.2314 16.7013 38.47 19.3054 38.47 23.1113C38.47 26.879 41.2314 29.5212 44.4364 29.5212C47.6414 29.5212 50.4028 26.8743 50.4028 23.1113Z" fill="black"/>
<path d="M77.9408 23.1113C77.9408 29.2017 73.1763 33.6896 67.3291 33.6896C61.4819 33.6896 56.7174 29.2017 56.7174 23.1113C56.7174 16.9827 61.4819 12.533 67.3291 12.533C73.1763 12.533 77.9408 16.978 77.9408 23.1113ZM73.2955 23.1113C73.2955 19.3054 70.5341 16.7013 67.3291 16.7013C64.1241 16.7013 61.3627 19.3054 61.3627 23.1113C61.3627 26.879 64.1241 29.5212 67.3291 29.5212C70.5341 29.5212 73.2955 26.8743 73.2955 23.1113Z" fill="black"/>
<path d="M99.8797 13.172V32.1634C99.8797 39.9756 95.2725 43.1662 89.826 43.1662C84.699 43.1662 81.6132 39.7371 80.4495 36.9327L84.4939 35.2492C85.2141 36.9709 86.9787 39.0026 89.8212 39.0026C93.3076 39.0026 95.4681 36.8517 95.4681 32.8025V31.2811H95.3059C94.2662 32.5641 92.2631 33.6848 89.7354 33.6848C84.4462 33.6848 79.6006 29.0777 79.6006 23.1494C79.6006 17.1783 84.4462 12.533 89.7354 12.533C92.2583 12.533 94.2614 13.6537 95.3059 14.8985H95.4681V13.1768H99.8797V13.172ZM95.7971 23.1494C95.7971 19.4246 93.3123 16.7013 90.1503 16.7013C86.9453 16.7013 84.2602 19.4246 84.2602 23.1494C84.2602 26.8361 86.9453 29.5212 90.1503 29.5212C93.3123 29.5212 95.7971 26.8361 95.7971 23.1494Z" fill="black"/>
<path d="M107.153 2.04053V33.041H102.622V2.04053H107.153Z" fill="black"/>
<path d="M124.809 26.5929L128.414 28.9966C127.251 30.7183 124.446 33.6848 119.601 33.6848C113.591 33.6848 109.104 29.0395 109.104 23.1065C109.104 16.8158 113.63 12.5282 119.081 12.5282C124.57 12.5282 127.256 16.8969 128.133 19.2577L128.615 20.4596L114.474 26.3163C115.556 28.4386 117.24 29.5212 119.601 29.5212C121.966 29.5212 123.607 28.3575 124.809 26.5929ZM113.711 22.787L123.163 18.8618C122.644 17.5407 121.079 16.6203 119.238 16.6203C116.877 16.6203 113.591 18.7044 113.711 22.787Z" fill="black"/>
<path d="M16.6743 20.3594V15.8715H31.7978C31.9456 16.6537 32.022 17.5789 32.022 18.5805C32.022 21.9476 31.1015 26.1112 28.135 29.0777C25.2495 32.0824 21.5629 33.6849 16.6791 33.6849C7.62695 33.6849 0.0151367 26.3115 0.0151367 17.2594C0.0151367 8.20722 7.62695 0.833862 16.6791 0.833862C21.6869 0.833862 25.2543 2.79882 27.9347 5.35994L24.7678 8.52676C22.8458 6.72396 20.2418 5.32178 16.6743 5.32178C10.0641 5.32178 4.89414 10.6491 4.89414 17.2594C4.89414 23.8696 10.0641 29.1969 16.6743 29.1969C20.9619 29.1969 23.4038 27.4752 24.9681 25.9109C26.2368 24.6422 27.0714 22.8299 27.4005 20.3546L16.6743 20.3594Z" fill="black"/>
</svg>
