<svg width="96" height="34" viewBox="0 0 96 34" fill="none" xmlns="http://www.w3.org/2000/svg">
<path d="M5.46672 24.1539C5.86796 25.2328 6.42398 26.1551 7.13418 26.9211C7.84497 27.6878 8.68659 28.274 9.65903 28.6804C10.6321 29.0868 11.6898 29.2903 12.8328 29.2903C13.9442 29.2903 14.9867 29.0791 15.9598 28.6567C16.9328 28.2344 17.782 27.6405 18.5074 26.8744C19.2334 26.1083 19.797 25.1932 20.1988 24.1302C20.6001 23.0672 20.801 21.8788 20.801 20.5649V0.300171H25.6649V33.1366H20.8471V30.0877C19.766 31.2448 18.4922 32.1357 17.0251 32.7615C15.5579 33.3868 13.9752 33.6997 12.2767 33.6997C10.5468 33.6997 8.93364 33.3945 7.43555 32.7846C5.93746 32.1753 4.64028 31.3075 3.54402 30.1812C2.44776 29.0555 1.58278 27.7032 0.949667 26.1237C0.316556 24.5443 0 22.7856 0 20.8465V0.300171H4.86456V20.5649C4.86456 21.8788 5.06489 23.0749 5.46672 24.1539Z" fill="#010202"/>
<path fill-rule="evenodd" clip-rule="evenodd" d="M34.0501 0.300171V12.2619C35.1306 11.1675 36.3817 10.2997 37.8027 9.6585C39.2231 9.01726 40.7673 8.69664 42.4354 8.69664C44.1647 8.69664 45.7861 9.02495 47.2993 9.68217C48.8126 10.3388 50.125 11.2303 51.237 12.356C52.349 13.4817 53.2292 14.8109 53.8781 16.343C54.5264 17.8757 54.8505 19.5019 54.8505 21.2215C54.8505 22.9418 54.5264 24.5603 53.8781 26.077C53.2292 27.5937 52.349 28.9147 51.237 30.0404C50.125 31.1667 48.8126 32.0576 47.2993 32.7148C45.7861 33.3714 44.1647 33.6997 42.4354 33.6997C40.7673 33.6997 39.2155 33.3791 37.7793 32.7379C36.3431 32.0966 35.0845 31.2288 34.0034 30.1344V33.1366H29.3707V0.300171H34.0501ZM34.5828 24.4585C34.9998 25.4594 35.5786 26.3349 36.3198 27.0856C37.0609 27.8363 37.9259 28.4302 38.9141 28.8679C39.9023 29.3057 40.9682 29.5245 42.1106 29.5245C43.2227 29.5245 44.2728 29.3057 45.261 28.8679C46.2492 28.4302 47.106 27.8363 47.832 27.0856C48.558 26.3349 49.1373 25.4594 49.5695 24.4585C50.0017 23.4576 50.2178 22.3792 50.2178 21.2215C50.2178 20.0645 50.0017 18.9778 49.5695 17.9615C49.1373 16.9452 48.558 16.0614 47.832 15.3114C47.1066 14.5607 46.2492 13.9745 45.261 13.5521C44.2728 13.1297 43.2227 12.9185 42.1106 12.9185C40.9992 12.9185 39.9491 13.1297 38.9608 13.5521C37.9726 13.9745 37.1076 14.5607 36.3665 15.3114C35.6253 16.0614 35.0384 16.9452 34.6062 17.9615C34.1734 18.9778 33.9573 20.0645 33.9573 21.2215C33.9573 22.3792 34.1658 23.4576 34.5828 24.4585Z" fill="#010202"/>
<path fill-rule="evenodd" clip-rule="evenodd" d="M57.491 16.3904C58.1083 14.889 58.9581 13.5681 60.0386 12.4264C61.1197 11.2847 62.4017 10.3856 63.884 9.72895C65.3664 9.07233 66.9725 8.74402 68.7019 8.74402C70.4009 8.74402 71.976 9.05695 73.4274 9.68222C74.8788 10.3075 76.1298 11.1753 77.1799 12.2856C78.2301 13.396 79.0483 14.7092 79.6353 16.226C80.2217 17.7427 80.5155 19.3925 80.5155 21.1749V22.723H61.2897C61.4444 23.6925 61.7528 24.5917 62.216 25.4204C62.6797 26.2492 63.2585 26.9685 63.9535 27.5784C64.6485 28.1883 65.4358 28.6651 66.316 29.0088C67.1962 29.3531 68.1307 29.5252 69.1189 29.5252C71.9293 29.5252 74.1995 28.3521 75.9289 26.0067L79.3111 28.5397C78.1372 30.1345 76.6858 31.3856 74.9565 32.2925C73.2265 33.1993 71.281 33.653 69.1189 33.653C67.3585 33.653 65.7139 33.3401 64.1854 32.7148C62.6563 32.0896 61.3282 31.2135 60.201 30.0878C59.0738 28.962 58.186 27.6405 57.5371 26.1238C56.8888 24.607 56.5647 22.9572 56.5647 21.1749C56.5641 19.486 56.8731 17.8912 57.491 16.3904ZM63.9997 14.5371C62.6873 15.6474 61.8147 17.1251 61.3825 18.9702H75.7899C75.3887 17.1251 74.5313 15.6474 73.2189 14.5371C71.9065 13.4273 70.3699 12.8719 68.6096 12.8719C66.8487 12.8719 65.3126 13.4273 63.9997 14.5371Z" fill="#010202"/>
<path d="M89.271 15.0765C88.2828 16.1708 87.7887 17.6568 87.7887 19.5332V33.1365H83.1093V9.21302H87.7419V12.1684C88.3289 11.1989 89.0934 10.4328 90.0349 9.86964C90.977 9.30648 92.0966 9.0249 93.3938 9.0249H95.0151V13.4349H93.0697C91.5254 13.4349 90.2592 13.9821 89.271 15.0765Z" fill="#010202"/>
</svg>
