<svg width="43" height="42" viewBox="0 0 43 42" fill="none" xmlns="http://www.w3.org/2000/svg">
<path d="M8.53693 27.5625V26.25H5.91193V27.5625C5.91193 29.9992 6.87989 32.3361 8.60288 34.059C10.3259 35.782 12.6628 36.75 15.0994 36.75H19.0369V34.125H15.0994C13.3589 34.125 11.6897 33.4336 10.459 32.2029C9.22833 30.9722 8.53693 29.303 8.53693 27.5625ZM32.1619 14.4375V15.75H34.7869V14.4375C34.7869 12.0008 33.819 9.66395 32.096 7.94096C30.373 6.21797 28.0361 5.25 25.5994 5.25H21.6619V7.875H25.5994C26.4612 7.875 27.3146 8.04475 28.1108 8.37454C28.907 8.70434 29.6304 9.18773 30.2398 9.79711C30.8492 10.4065 31.3326 11.1299 31.6624 11.9261C31.9922 12.7223 32.1619 13.5757 32.1619 14.4375ZM15.0994 14.4375H7.22443C6.18014 14.4375 5.17862 14.8523 4.44019 15.5908C3.70177 16.3292 3.28693 17.3307 3.28693 18.375V21H5.91193V18.375C5.91193 18.0269 6.05021 17.6931 6.29635 17.4469C6.54249 17.2008 6.87633 17.0625 7.22443 17.0625H15.0994C15.4475 17.0625 15.7814 17.2008 16.0275 17.4469C16.2736 17.6931 16.4119 18.0269 16.4119 18.375V21H19.0369V18.375C19.0369 17.3307 18.6221 16.3292 17.8837 15.5908C17.1452 14.8523 16.1437 14.4375 15.0994 14.4375ZM11.1619 13.125C12.2003 13.125 13.2153 12.8171 14.0787 12.2402C14.942 11.6633 15.6149 10.8434 16.0123 9.88409C16.4097 8.92478 16.5136 7.86918 16.311 6.85078C16.1085 5.83238 15.6085 4.89692 14.8742 4.16269C14.14 3.42847 13.2046 2.92845 12.1862 2.72588C11.1677 2.52331 10.1122 2.62727 9.15284 3.02463C8.19353 3.42199 7.37359 4.0949 6.79671 4.95826C6.21983 5.82162 5.91193 6.83665 5.91193 7.875C5.91193 9.26739 6.46505 10.6027 7.44962 11.5873C8.43418 12.5719 9.76954 13.125 11.1619 13.125ZM11.1619 5.25C11.6811 5.25 12.1886 5.40396 12.6203 5.69239C13.052 5.98083 13.3884 6.3908 13.5871 6.87046C13.7858 7.35011 13.8378 7.87791 13.7365 8.38711C13.6352 8.89631 13.3852 9.36405 13.0181 9.73116C12.651 10.0983 12.1832 10.3483 11.674 10.4496C11.1648 10.5509 10.637 10.4989 10.1574 10.3002C9.67773 10.1015 9.26776 9.76505 8.97932 9.33337C8.69088 8.9017 8.53693 8.39418 8.53693 7.875C8.53693 7.17881 8.81349 6.51113 9.30577 6.01885C9.79805 5.52656 10.4657 5.25 11.1619 5.25ZM36.0994 32.8125H28.2244C27.1801 32.8125 26.1786 33.2273 25.4402 33.9658C24.7018 34.7042 24.2869 35.7057 24.2869 36.75V39.375H26.9119V36.75C26.9119 36.4019 27.0502 36.0681 27.2963 35.8219C27.5425 35.5758 27.8763 35.4375 28.2244 35.4375H36.0994C36.4475 35.4375 36.7814 35.5758 37.0275 35.8219C37.2736 36.0681 37.4119 36.4019 37.4119 36.75V39.375H40.0369V36.75C40.0369 35.7057 39.6221 34.7042 38.8837 33.9658C38.1452 33.2273 37.1437 32.8125 36.0994 32.8125ZM26.9119 26.25C26.9119 27.2884 27.2198 28.3034 27.7967 29.1667C28.3736 30.0301 29.1935 30.703 30.1528 31.1004C31.1122 31.4977 32.1677 31.6017 33.1861 31.3991C34.2045 31.1966 35.14 30.6965 35.8742 29.9623C36.6085 29.2281 37.1085 28.2926 37.3111 27.2742C37.5136 26.2558 37.4097 25.2002 37.0123 24.2409C36.6149 23.2816 35.942 22.4617 35.0787 21.8848C34.2153 21.3079 33.2003 21 32.1619 21C30.7695 21 29.4342 21.5531 28.4496 22.5377C27.4651 23.5223 26.9119 24.8576 26.9119 26.25ZM34.7869 26.25C34.7869 26.7692 34.633 27.2767 34.3445 27.7084C34.0561 28.1401 33.6461 28.4765 33.1665 28.6752C32.6868 28.8739 32.159 28.9258 31.6498 28.8246C31.1406 28.7233 30.6729 28.4733 30.3058 28.1062C29.9387 27.739 29.6887 27.2713 29.5874 26.7621C29.4861 26.2529 29.5381 25.7251 29.7367 25.2455C29.9354 24.7658 30.2719 24.3558 30.7036 24.0674C31.1352 23.779 31.6427 23.625 32.1619 23.625C32.8581 23.625 33.5258 23.9016 34.0181 24.3938C34.5104 24.8861 34.7869 25.5538 34.7869 26.25Z" fill="black"/>
</svg>
