<svg width="40" height="40" viewBox="0 0 40 40" fill="none" xmlns="http://www.w3.org/2000/svg">
<circle cx="20.279" cy="20.1238" r="19.7209" fill="white"/>
<path d="M20.7612 14.2888C17.2638 14.2888 14.4413 17.1114 14.4413 20.6088C14.4413 24.1061 17.2638 26.9287 20.7612 26.9287C24.2586 26.9287 27.0811 24.1061 27.0811 20.6088C27.0811 17.1114 24.2586 14.2888 20.7612 14.2888ZM20.7612 24.7163C18.4994 24.7163 16.6537 22.8705 16.6537 20.6088C16.6537 18.347 18.4994 16.5013 20.7612 16.5013C23.0229 16.5013 24.8687 18.347 24.8687 20.6088C24.8687 22.8705 23.0229 24.7163 20.7612 24.7163ZM27.34 12.5571C26.5234 12.5571 25.864 13.2165 25.864 14.0331C25.864 14.8496 26.5234 15.509 27.34 15.509C28.1565 15.509 28.816 14.8527 28.816 14.0331C28.8162 13.8392 28.7782 13.6471 28.7041 13.4679C28.63 13.2888 28.5213 13.1259 28.3842 12.9888C28.2471 12.8517 28.0843 12.743 27.9051 12.6689C27.7259 12.5948 27.5339 12.5568 27.34 12.5571ZM33.0806 20.6088C33.0806 18.9078 33.096 17.2223 33.0005 15.5245C32.905 13.5524 32.4551 11.8021 31.013 10.36C29.5678 8.91486 27.8207 8.46806 25.8486 8.37254C24.1476 8.27701 22.4621 8.29242 20.7643 8.29242C19.0633 8.29242 17.3778 8.27701 15.68 8.37254C13.7079 8.46806 11.9576 8.91794 10.5156 10.36C9.07038 11.8052 8.62358 13.5524 8.52805 15.5245C8.43253 17.2254 8.44794 18.9109 8.44794 20.6088C8.44794 22.3066 8.43253 23.9952 8.52805 25.6931C8.62358 27.6652 9.07346 29.4154 10.5156 30.8575C11.9607 32.3027 13.7079 32.7495 15.68 32.845C17.3809 32.9405 19.0664 32.9251 20.7643 32.9251C22.4652 32.9251 24.1507 32.9405 25.8486 32.845C27.8207 32.7495 29.5709 32.2996 31.013 30.8575C32.4582 29.4123 32.905 27.6652 33.0005 25.6931C33.0991 23.9952 33.0806 22.3097 33.0806 20.6088ZM30.369 27.8747C30.144 28.4355 29.8729 28.8546 29.4384 29.286C29.0039 29.7204 28.5879 29.9916 28.0271 30.2165C26.4063 30.8606 22.5576 30.7157 20.7612 30.7157C18.9647 30.7157 15.113 30.8606 13.4922 30.2196C12.9314 29.9947 12.5123 29.7235 12.0809 29.289C11.6464 28.8546 11.3753 28.4386 11.1503 27.8778C10.5094 26.2539 10.6542 22.4052 10.6542 20.6088C10.6542 18.8123 10.5094 14.9606 11.1503 13.3397C11.3753 12.7789 11.6464 12.3599 12.0809 11.9285C12.5154 11.4971 12.9314 11.2228 13.4922 10.9979C15.113 10.357 18.9647 10.5018 20.7612 10.5018C22.5576 10.5018 26.4094 10.357 28.0302 10.9979C28.591 11.2228 29.0101 11.494 29.4415 11.9285C29.876 12.3629 30.1471 12.7789 30.3721 13.3397C31.013 14.9606 30.8682 18.8123 30.8682 20.6088C30.8682 22.4052 31.013 26.2539 30.369 27.8747Z" fill="#1C4932" />
</svg>
