<svg width="488" height="62" viewBox="0 0 488 62" fill="none" xmlns="http://www.w3.org/2000/svg">
<path d="M4.37523 35.371H0V30.9958H4.37523V35.371ZM100.63 30.9958H96.2551V35.371H100.63V30.9958ZM13.1257 26.6205H8.75046V39.7462H13.1257V26.6205ZM91.8798 26.6205H87.5046V39.7462H91.8798V26.6205ZM30.6266 26.6205H26.2514V39.7462H30.6266V26.6205ZM74.3789 22.2453H70.0037V44.1214H74.3789V22.2453ZM21.8762 22.2453H17.5009V44.1214H21.8762V22.2453ZM83.1294 17.8701H78.7541V48.4967H83.1294V17.8701ZM39.3771 17.8701H35.0018V48.4967H39.3771V17.8701ZM48.1275 9.1196H43.7523V52.8719H48.1275V9.1196ZM65.6285 9.1196H61.2532V52.8719H65.6285V9.1196ZM56.878 0.369141H52.5028V61.6224H56.878V0.369141Z" fill="white"/>
<path d="M101.041 35.3712H96.6653V30.996H101.041V35.3712ZM197.296 30.996H192.92V35.3712H197.296V30.996ZM109.791 26.6208H105.416V39.7465H109.791V26.6208ZM188.545 26.6208H184.17V39.7465H188.545V26.6208ZM127.292 26.6208H122.917V39.7465H127.292V26.6208ZM171.044 22.2455H166.669V44.1217H171.044V22.2455ZM118.541 22.2455H114.166V44.1217H118.541V22.2455ZM179.795 17.8703H175.419V48.4969H179.795V17.8703ZM136.042 17.8703H131.667V48.4969H136.042V17.8703ZM144.793 9.11984H140.418V52.8721H144.793V9.11984ZM162.294 9.11984H157.919V52.8721H162.294V9.11984ZM153.543 0.369385H149.168V61.6226H153.543V0.369385Z" fill="white"/>
<path d="M197.706 35.3712H193.33V30.996H197.706V35.3712ZM293.961 30.996H289.586V35.3712H293.961V30.996ZM206.456 26.6208H202.081V39.7465H206.456V26.6208ZM285.21 26.6208H280.835V39.7465H285.21V26.6208ZM223.957 26.6208H219.582V39.7465H223.957V26.6208ZM267.709 22.2455H263.334V44.1217H267.709V22.2455ZM215.207 22.2455H210.831V44.1217H215.207V22.2455ZM276.46 17.8703H272.085V48.4969H276.46V17.8703ZM232.708 17.8703H228.332V48.4969H232.708V17.8703ZM241.458 9.11984H237.083V52.8721H241.458V9.11984ZM258.959 9.11984H254.584V52.8721H258.959V9.11984ZM250.208 0.369385H245.833V61.6226H250.208V0.369385Z" fill="white"/>
<path d="M294.371 35.3712H289.996V30.996H294.371V35.3712ZM390.626 30.996H386.251V35.3712H390.626V30.996ZM303.121 26.6208H298.746V39.7465H303.121V26.6208ZM381.876 26.6208H377.5V39.7465H381.876V26.6208ZM320.622 26.6208H316.247V39.7465H320.622V26.6208ZM364.375 22.2455H359.999V44.1217H364.375V22.2455ZM311.872 22.2455H307.497V44.1217H311.872V22.2455ZM373.125 17.8703H368.75V48.4969H373.125V17.8703ZM329.373 17.8703H324.998V48.4969H329.373V17.8703ZM338.123 9.11984H333.748V52.8721H338.123V9.11984ZM355.624 9.11984H351.249V52.8721H355.624V9.11984ZM346.874 0.369385H342.498V61.6226H346.874V0.369385Z" fill="white"/>
<path d="M391.036 35.3712H386.661V30.996H391.036V35.3712ZM487.291 30.996H482.916V35.3712H487.291V30.996ZM399.787 26.6208H395.411V39.7465H399.787V26.6208ZM478.541 26.6208H474.165V39.7465H478.541V26.6208ZM417.288 26.6208H412.912V39.7465H417.288V26.6208ZM461.04 22.2455H456.665V44.1217H461.04V22.2455ZM408.537 22.2455H404.162V44.1217H408.537V22.2455ZM469.79 17.8703H465.415V48.4969H469.79V17.8703ZM426.038 17.8703H421.663V48.4969H426.038V17.8703ZM434.788 9.11984H430.413V52.8721H434.788V9.11984ZM452.289 9.11984H447.914V52.8721H452.289V9.11984ZM443.539 0.369385H439.164V61.6226H443.539V0.369385Z" fill="white"/>
</svg>
