<svg width="78" height="12" viewBox="0 0 78 12" fill="none" xmlns="http://www.w3.org/2000/svg">
<path d="M72 -5.24537e-07L70.6529 4.1459L66.2937 4.1459L69.8204 6.7082L68.4733 10.8541L72 8.2918L75.5267 10.8541L74.1796 6.7082L77.7063 4.1459L73.3471 4.1459L72 -5.24537e-07Z" fill="#B7B7B7"/>
<path d="M55.5 -4.80825e-07L54.2652 4.1459L50.2692 4.1459L53.502 6.7082L52.2672 10.8541L55.5 8.2918L58.7328 10.8541L57.498 6.7082L60.7308 4.1459L56.7348 4.1459L55.5 -4.80825e-07Z" fill="#F8C616"/>
<path d="M39 -5.24537e-07L37.6529 4.1459L33.2937 4.1459L36.8204 6.7082L35.4733 10.8541L39 8.2918L42.5267 10.8541L41.1796 6.7082L44.7063 4.1459L40.3471 4.1459L39 -5.24537e-07Z" fill="#F8C616"/>
<path d="M22.5 -4.80825e-07L21.2652 4.1459L17.2692 4.1459L20.502 6.7082L19.2672 10.8541L22.5 8.2918L25.7328 10.8541L24.498 6.7082L27.7308 4.1459L23.7348 4.1459L22.5 -4.80825e-07Z" fill="#F8C616"/>
<path d="M6 -5.24537e-07L4.65292 4.1459L0.293661 4.1459L3.82037 6.7082L2.47329 10.8541L6 8.2918L9.52671 10.8541L8.17963 6.7082L11.7063 4.1459L7.34708 4.1459L6 -5.24537e-07Z" fill="#F8C616"/>
</svg>
