<svg width="41" height="40" viewBox="0 0 41 40" fill="none" xmlns="http://www.w3.org/2000/svg">
<path d="M20.5001 0.402832C9.6084 0.402832 0.779175 9.23206 0.779175 20.1238C0.779175 31.0155 9.6084 39.8447 20.5001 39.8447C31.3918 39.8447 40.221 31.0155 40.221 20.1238C40.221 9.23206 31.3918 0.402832 20.5001 0.402832ZM28.522 16.5576C28.5302 16.726 28.5323 16.8945 28.5323 17.0588C28.5323 22.1945 24.6271 28.1128 17.4824 28.1128C15.3712 28.1163 13.3039 27.51 11.5291 26.3667C11.8311 26.4036 12.1413 26.418 12.4556 26.418C14.2757 26.418 15.9499 25.7997 17.279 24.7561C16.4691 24.7402 15.6842 24.472 15.0339 23.9889C14.3836 23.5058 13.9003 22.8318 13.6512 22.0609C14.2329 22.1715 14.8321 22.1484 15.4035 21.9931C14.5244 21.8154 13.7338 21.339 13.1658 20.6449C12.5978 19.9507 12.2874 19.0815 12.2872 18.1845V18.1373C12.811 18.4269 13.4108 18.6036 14.0477 18.6241C13.2235 18.0755 12.6401 17.2327 12.4167 16.2682C12.1933 15.3036 12.3468 14.2902 12.8459 13.4351C13.8216 14.6348 15.0384 15.6162 16.4174 16.3158C17.7964 17.0154 19.307 17.4176 20.8514 17.4964C20.655 16.663 20.7395 15.788 21.0918 15.0076C21.444 14.2272 22.0441 13.585 22.799 13.1809C23.5538 12.7768 24.421 12.6333 25.2658 12.7729C26.1105 12.9125 26.8855 13.3273 27.4702 13.9528C28.3395 13.7808 29.1732 13.4619 29.9353 13.0098C29.6456 13.9099 29.039 14.6742 28.2282 15.1607C28.9983 15.0679 29.7502 14.8609 30.4592 14.5464C29.9384 15.3268 29.2824 16.0079 28.522 16.5576Z" fill="white"/>
</svg>
